<?xml version="1.0" encoding="UTF-8" standalone="no"?>
<!-- Created with Inkscape (http://www.inkscape.org/) -->

<svg
   xmlns:dc="http://purl.org/dc/elements/1.1/"
   xmlns:cc="http://creativecommons.org/ns#"
   xmlns:rdf="http://www.w3.org/1999/02/22-rdf-syntax-ns#"
   xmlns:svg="http://www.w3.org/2000/svg"
   xmlns="http://www.w3.org/2000/svg"
   xmlns:sodipodi="http://sodipodi.sourceforge.net/DTD/sodipodi-0.dtd"
   xmlns:inkscape="http://www.inkscape.org/namespaces/inkscape"
   width="210mm"
   height="297mm"
   viewBox="0 0 210 297"
   version="1.1"
   id="svg8"
   inkscape:version="0.92.3 (2405546, 2018-03-11)"
   sodipodi:docname="vpg.svg">
  <defs
     id="defs2" />
  <sodipodi:namedview
     id="base"
     pagecolor="#ffffff"
     bordercolor="#666666"
     borderopacity="1.0"
     inkscape:pageopacity="0.0"
     inkscape:pageshadow="2"
     inkscape:zoom="0.35"
     inkscape:cx="400"
     inkscape:cy="560"
     inkscape:document-units="mm"
     inkscape:current-layer="layer1"
     showgrid="false"
     inkscape:window-width="1366"
     inkscape:window-height="705"
     inkscape:window-x="-8"
     inkscape:window-y="-8"
     inkscape:window-maximized="1" />
  <metadata
     id="metadata5">
    <rdf:RDF>
      <cc:Work
         rdf:about="">
        <dc:format>image/svg+xml</dc:format>
        <dc:type
           rdf:resource="http://purl.org/dc/dcmitype/StillImage" />
        <dc:title></dc:title>
      </cc:Work>
    </rdf:RDF>
  </metadata>
  <g
     inkscape:label="Capa 1"
     inkscape:groupmode="layer"
     id="layer1">
    <path
       id="path3715"
       d="m 73.388072,54.774979 c 0.175617,2.512832 0.94634,4.919467 1.386271,7.386967 0.793694,5.961607 1.621358,11.916291 2.567069,17.857148 1.292564,10.78506 4.037695,21.280306 7.015708,31.698966 1.854546,7.14713 4.063865,14.19447 6.040426,21.30656 0.287147,0.69464 0.488017,1.59219 1.181995,2.05269 0.154381,0.10244 0.402558,0.18154 0.55127,0.071 0.270179,-0.20077 0.823849,-1.00884 0.518919,-0.86629 -2.893666,1.35279 -5.492327,3.30087 -8.426611,4.56313 -0.584981,0.25164 0.817094,-0.97697 1.225642,-1.46545 6.658399,-9.85915 12.25623,-20.39948 18.063029,-30.77201 8.22604,-14.830252 16.4555,-29.658148 24.6433,-44.509484 3.16087,-5.955927 6.79157,-11.665056 9.4848,-17.857322 0,0 10.01136,-4.580009 10.01136,-4.580009 v 0 c -2.95795,6.401586 -6.94054,12.227126 -10.3878,18.368584 -8.44121,14.793377 -16.81082,29.627583 -24.90547,44.614681 -5.44663,10.2248 -10.96939,20.41493 -16.829567,30.40996 -3.384466,4.73586 -1.376794,2.33169 -11.565327,8.22121 -1.772385,1.02453 -2.908302,-1.99683 -3.185406,-3.04722 -1.629624,-7.25253 -3.53927,-14.44245 -5.338135,-21.65391 C 72.554716,106.14865 69.514712,95.727027 67.93316,85.002087 66.989111,79.11565 66.119822,73.216673 65.02401,67.356186 c -0.470334,-2.460515 -1.201823,-4.864063 -1.554995,-7.348631 0,0 9.919057,-5.232606 9.919057,-5.232606 z"
       inkscape:connector-curvature="0"
       style="stroke-width:0.26458332" />
    <path
       id="path3727"
       d="m 122.32786,117.88837 c -1.59673,8.26845 -2.79859,16.62079 -4.05845,24.94914 -0.8484,6.62116 -2.2382,13.14806 -3.37294,19.72065 -0.34427,1.7618 -0.66184,3.52807 -0.95909,5.29829 0,0 -9.90674,4.83759 -9.90674,4.83759 v 0 c 0.31445,-1.79734 0.67357,-3.58431 1.06257,-5.36724 1.3352,-6.63264 2.89786,-13.21807 3.85989,-19.92204 1.30845,-8.19291 2.60367,-16.38878 3.30758,-24.66121 0,0 10.06718,-4.85518 10.06718,-4.85518 z"
       inkscape:connector-curvature="0"
       style="stroke-width:0.26458332" />
    <path
       id="path3729"
       d="m 101.53188,122.55921 c 3.67803,-4.08057 7.23335,-8.27022 11.61575,-11.61422 5.456,-3.50531 10.90269,-7.52014 17.2979,-8.99909 1.55375,-0.35931 2.33433,-0.40275 3.91675,-0.58348 2.40194,-0.043 4.84447,-0.45369 7.25088,-0.28599 1.16895,0.0815 1.75652,0.31323 2.86729,0.63329 3.66092,1.95504 5.70636,5.71991 7.75447,9.16562 3.44172,6.12207 5.17259,13.09543 6.26585,19.99155 0.11395,2.26173 -0.0178,5.02762 -2.19259,6.45186 -3.83613,2.51222 -7.79684,4.85324 -11.89535,6.90977 -1.78526,0.8958 -7.455,1.52445 -9.02999,1.75251 -13.14021,1.24265 -26.35498,1.3259 -39.542185,1.53903 -1.56211,0.0239 -3.124223,0.0479 -4.686334,0.0718 0,0 8.445248,-6.1402 8.445248,-6.1402 v 0 c 1.507911,0.0136 3.015821,0.0271 4.523741,0.0406 13.17712,0.005 26.4065,-0.065 39.49988,-1.70888 1.75281,-0.33034 3.52811,-0.55805 5.25842,-0.99102 1.32954,-0.33269 4.85264,-2.28647 3.9004,-1.30078 -1.7726,1.83487 -4.2587,2.82697 -6.51859,4.01093 -0.66483,0.34831 1.23464,-0.88976 1.69401,-1.4833 1.1108,-1.43522 0.89019,-2.38921 1.0055,-4.1253 -0.81476,-6.81855 -2.43032,-13.69398 -6.06884,-19.59639 -1.96305,-3.14473 -3.9985,-6.74054 -7.52793,-8.30932 -3.21637,-0.71651 -6.52546,-0.35785 -9.78133,-0.0706 -1.94585,0.29317 -3.81959,0.62939 -5.67359,1.31814 -3.45918,1.28508 -6.9449,3.70516 5.34996,-3.53107 0.68074,-0.40065 -1.345,0.82863 -2.0175,1.24294 -0.6799,0.47038 -1.38615,0.9048 -2.0397,1.41115 -3.59049,2.78183 -6.43562,6.42442 -9.37923,9.84415 0,0 -10.29289,4.3563 -10.29289,4.3563 z"
       inkscape:connector-curvature="0"
       style="stroke-width:0.26458332" />
    <path
       id="path3731"
       d="m 148.58105,162.75118 c -1.08515,-1.60824 -2.60197,-2.66816 -4.41207,-3.29386 -1.68174,-0.43266 -3.4378,-0.41424 -5.1628,-0.42171 -1.99018,0.14351 -4.05191,0.27373 -6.00117,0.73907 -1.79719,0.41507 -3.62113,1.10574 -5.22819,2.02115 -3.42238,1.87449 -8.391,4.6934 7.3454,-4.2561 0.22223,-0.12638 -0.43416,0.27006 -0.65152,0.40464 -0.88627,0.54877 -0.4283,0.24612 -1.2535,0.82057 -1.16455,0.98922 -1.69974,2.49282 -2.0633,3.9346 -0.47362,2.97075 -0.45167,5.99931 -0.46426,9.00047 -0.0728,3.5201 0.69738,6.53759 2.45899,9.5655 1.4372,2.58149 3.48105,4.64144 5.75101,6.48623 1.42588,1.31264 3.05603,2.11859 4.94981,2.44533 0.24857,0.0252 0.49662,0.0563 0.74571,0.0756 0.7753,0.0602 0.71393,0.12611 1.40977,-0.22861 0.23612,-0.12036 0.90861,-0.54584 0.67756,-0.416 -9.04138,5.08106 -11.57138,7.23482 -8.2432,4.48878 1.35147,-1.27867 2.30895,-2.83112 3.13255,-4.48055 0.6119,-1.52014 1.16072,-3.07926 1.53231,-4.67725 0.44669,-2.52651 0.43088,-5.11099 0.44748,-7.66888 0.032,-2.72926 -0.0199,-5.45837 -0.0209,-8.18767 -0.20582,-4.612 -1.8431,-1.09261 9.9363,-5.6766 0.26459,-0.10297 -0.14196,0.55002 -0.20015,0.82792 -0.22147,1.05746 -0.35593,1.96695 -0.53282,3.04679 -0.71132,5.49447 -1.59166,10.96668 -2.42228,16.44446 -1.40907,6.35111 -2.98321,12.67726 -4.79471,18.92705 -1.37405,5.10774 -3.08685,10.1347 -5.12754,15.01456 -1.94298,4.71949 -4.87718,8.85939 -7.99595,12.85637 -4.16988,5.25478 -8.58532,10.2865 -13.48198,14.87297 -2.66721,2.21355 -5.41253,4.37491 -8.42211,6.11314 -6.14565,3.54952 -9.93061,6.36524 -16.060406,8.07225 -3.744237,0.89956 -7.48408,0.29761 -11.194176,-0.43624 -4.766646,-0.94282 -3.628258,-0.73001 -8.530916,-2.0864 -8.93699,-3.12756 -17.486273,-7.60624 -24.774544,-13.70118 -1.515811,-1.26762 -2.916094,-2.66732 -4.374141,-4.001 -5.444965,-5.44947 -9.741341,-11.85728 -12.341998,-19.12832 -1.582953,-4.4257 -1.765478,-6.19584 -2.691279,-10.79326 -0.997754,-7.29929 -0.381442,-14.66114 1.714446,-21.71975 1.228352,-4.13689 2.11066,-5.80948 3.832691,-9.71194 2.175894,-4.18237 4.356503,-8.48612 7.630609,-11.94078 1.314635,-1.38713 1.753618,-1.64302 3.192677,-2.74811 3.805029,-1.00432 8.989476,-6.94917 14.192995,-7.12558 0.530151,-0.018 1.113709,0.12 1.631048,0.21847 0,0 -9.145012,6.46573 -9.145012,6.46573 v 0 c -4.248956,-0.25629 -12.151612,5.78334 3.518035,-3.58617 -1.563413,1.03798 -1.994221,1.23646 -3.431284,2.59498 -3.515518,3.32339 -5.867614,7.63145 -8.179829,11.81973 -1.773918,3.83705 -2.688265,5.49502 -3.964121,9.57135 -2.161025,6.90443 -2.853805,14.1458 -1.945417,21.32556 0.879849,4.44374 1.088539,6.33491 2.594196,10.61631 2.512135,7.14336 6.69664,13.45044 12.057122,18.77558 1.443744,1.30656 2.829855,2.67978 4.331231,3.91967 7.26783,6.00212 15.77339,10.42892 24.748808,13.23543 6.41902,1.60766 13.174258,3.43181 19.766465,1.76734 4.70354,-1.51662 8.40053,-4.0907 -2.57911,2.46978 -0.909429,0.5434 1.83694,-1.05802 2.72519,-1.63542 2.4675,-1.60393 3.53756,-2.51372 5.88427,-4.33247 0.9271,-0.84124 1.8812,-1.65364 2.7813,-2.5237 3.8546,-3.726 7.12086,-8.01187 10.56073,-12.108 3.12897,-3.90988 6.09135,-7.94744 8.07864,-12.5811 2.13317,-4.83161 3.87343,-9.85606 5.27719,-14.94542 1.89169,-6.19011 3.4554,-12.4818 4.86912,-18.79641 0.81595,-5.42643 1.71901,-10.85342 2.19996,-16.32054 0.11281,-0.99466 0.27115,-1.98388 0.37943,-2.97904 0.0326,-0.29966 -0.20673,-0.74628 0.0508,-0.90284 12.09936,-7.3544 10.298,-8.91807 10.12471,-4.21532 0.007,2.74059 -0.0297,5.4809 -0.0228,8.2215 -0.0238,2.6008 0.0427,5.21455 -0.22771,7.80427 -0.31374,1.69803 -0.8887,3.29823 -1.44787,4.92646 -0.76816,1.73865 -1.62144,3.44386 -2.97983,4.80593 -2.94775,3.8738 -0.62455,1.02167 -10.82914,6.73889 -0.97444,0.54593 -2.24132,0.16577 -3.25344,0.009 -1.96606,-0.54086 -3.66246,-1.54711 -5.16256,-2.93731 -2.30359,-1.97595 -4.40152,-4.17881 -5.88225,-6.85547 -1.81147,-3.10788 -2.76815,-6.46094 -2.74242,-10.08044 0.026,-3.04306 -0.007,-6.09348 0.24424,-9.12857 0.25291,-1.63823 0.78679,-3.23697 1.72115,-4.61239 0.58174,-0.56919 1.15942,-0.96283 1.8629,-1.37104 3.91296,-2.2706 7.77411,-4.69968 11.81425,-6.76539 1.7469,-0.72912 3.48771,-1.5064 5.38253,-1.76125 2.03871,-0.29176 4.09575,-0.60322 6.15894,-0.57277 1.81634,0.0506 3.672,0.10419 5.39052,0.75928 1.89539,0.85466 3.47682,2.11204 4.77201,3.74881 0,0 -9.6364,5.7595 -9.6364,5.7595 z"
       inkscape:connector-curvature="0"
       style="stroke-width:0.26458332" />
  </g>
</svg>
